<svg xmlns="http://www.w3.org/2000/svg" viewBox="0 0 24 24" fill="none">
  <path d="M12 2.75L14.34 7.49L19.58 8.25L15.79 11.95L16.69 17.18L12 14.72L7.31 17.18L8.21 11.95L4.42 8.25L9.66 7.49L12 2.75Z" fill="#9CF2FF"/>
  <path d="M12 2.75L14.34 7.49L19.58 8.25L15.79 11.95L16.69 17.18L12 14.72L7.31 17.18L8.21 11.95L4.42 8.25L9.66 7.49L12 2.75Z" stroke="#49D7F2" stroke-width="1.35" stroke-linejoin="round"/>
  <path d="M12 5.65L13.18 8.03L15.82 8.41L13.91 10.27L14.36 12.89L12 11.65L9.64 12.89L10.09 10.27L8.18 8.41L10.82 8.03L12 5.65Z" fill="#F5FEFF"/>
</svg>
