<svg xmlns="http://www.w3.org/2000/svg" viewBox="0 0 64 64" role="img" aria-labelledby="title">
  <title>Tecnologico de Monterrey</title>
  <circle cx="32" cy="32" r="32" fill="#0057b8"/>
  <path fill="#fff" d="M48.94 31.98c0-11.3-9.21-20.46-20.58-20.46S7.78 20.68 7.78 31.98c0 10.43 7.86 19.04 18.02 20.3v-2.9c-3.39-.5-6.78-1.65-9.03-4.74h23.2c-2.26 3.09-5.64 4.24-9.03 4.74v2.9c10.16-1.26 18-9.87 18-20.3Zm-31.9-5.67c1-1.03 7.8-7.64 8.97-8.82 2.86-2.86 2.3-5.16 2.3-5.16 3.3 2.48 2.08 5.15.29 6.88-1.46 1.42-6.6 6.57-8.99 8.84-3.8 3.64-3.34 6.65-2.62 9.22-2.8-2.85-4.06-6.81.05-10.96Zm4.93 1.47c.94-.95 6.8-6.67 8-7.85 1.95-1.9 1.56-3.95 1.56-3.95 2.27 1.74 1.43 4-.08 5.46-1.28 1.24-5.84 5.8-7.94 7.86-2.4 2.34-2.96 4.87-.72 7.15.31-1.6.4-4.14 3.85-7.51 2.1-2.05 1.58-1.54 2.87-2.81.86-.92 2.79-2.6 1.92-6.24-.32.83-1.04 1.47-3.35 3.66-1.13 1.06-2.7 2.56-3.56 3.39-2.06 2-3.23 5.47-1.31 7.54 0 0 .02-2.22 3.47-5.58 2.11-2.06 1.59-1.55 2.89-2.81 1.31-1.32 2.18-3.08 1.3-5.68 0 0 0 .83-3.15 3.84-.88.84-4.7 4.58-5.6 5.46-1.96 1.92-5 5.3-1.15 9.83-.28-1.45-.19-4.52 4.94-9.19 2.17-2.15 4.87-4.74 6.24-6.11 1.4-1.37 3.03-3.55 1.8-7.53 0 0 0 1.27-4.46 5.58-1.38 1.33-8.58 8.36-9.71 9.45-4.14 4.02-5.04 10.13-1.03 13.08.04-3.85 4.6-8 5.28-8.62Z"/>
</svg>
